<svg width="97" height="96" viewBox="0 0 97 96" fill="none" xmlns="http://www.w3.org/2000/svg">
<path d="M2.01227 76.7628C-0.123373 71.431 -0.172726 71.1429 0.140628 65.8376C0.941338 52.281 14.0064 24.5474 26.6551 9.55475C32.5921 2.51745 37.3713 0.509201 48.2035 0.500018C56.2255 0.493411 65.2582 2.33913 72.682 5.5024C78.2574 7.87811 84.9725 14.0858 88.1307 19.7837L90.261 23.6273L87.1348 26.4703C75.5376 37.0168 48.5808 57.5036 34.0548 66.8103C21.7275 74.7083 7.47234 82.1581 4.54841 82.2305C4.35996 82.2349 3.21869 79.7747 2.01227 76.7628Z" fill="#AEADF0"/>
<path d="M6.66194 85.6131C5.58427 84.0607 5.7015 83.9452 10.0888 82.2367C17.1499 79.4871 31.8833 70.9935 43.295 63.094C46.3125 61.0052 49.5623 58.7554 50.517 58.0944C58.5056 52.5629 80.0914 35.5876 86.9754 29.4233C90.052 26.6683 91.2393 25.9156 91.6586 26.4544C92.3888 27.3928 94.3503 32.6838 94.054 32.916C93.9288 33.0142 90.7078 35.7955 86.8963 39.0969C70.3863 53.3972 51.6137 66.0846 33.1888 75.3951C26.1296 78.9622 8.83993 86.9004 8.12974 86.9004C7.81395 86.9004 7.15344 86.3211 6.66194 85.6131Z" fill="#AEADF0"/>
<path d="M11.0994 89.8467C9.67866 88.6509 9.45712 88.0658 10.425 88.0658C11.8767 88.0658 32.8622 78.4293 40.6962 74.1654C58.4427 64.5061 76.6886 51.755 90.1422 39.6101L94.5433 35.6372L94.9002 37.8161C95.7697 43.1229 96.3244 42.4142 84.0087 51.7289C70.2772 62.1142 57.749 69.4886 33.1887 81.6423C25.3139 85.5392 12.7752 91.1674 12.4309 90.9598C12.4132 90.9488 11.814 90.4482 11.0994 89.8467Z" fill="#AEADF0"/>
<path d="M17.5962 93.0997C14.9055 92.2804 14.8096 92.3597 21.9275 89.5165C31.6741 85.6234 52.5417 74.7238 67.983 65.4607C71.2387 63.5077 73.9024 62.006 73.9024 62.1237C73.9024 62.8345 51.3815 77.1921 39.8299 83.8457C38.7183 84.486 36.1195 85.9862 34.0549 87.1795C28.3647 90.4682 21.4653 93.898 20.6409 93.8478C20.2368 93.8231 18.8667 93.4865 17.5962 93.0997Z" fill="#AEADF0"/>
<path d="M47.0668 94.5554C47.3745 94.267 52.304 90.1517 58.0213 85.4103C63.7385 80.6689 72.3144 73.3571 77.0788 69.1618C89.7277 58.0238 95.877 52.9407 96.2487 53.3157C96.9009 53.9737 94.0242 64.6905 92.1429 68.6112C88.7432 75.6964 83.2741 80.2266 70.7329 86.3455C61.5623 90.8199 44.8758 96.6085 47.0668 94.5554Z" fill="#AEADF0"/>
<path d="M27.7025 94.5331L25.1038 94.1836L31.9674 90.498C35.7425 88.471 39.7705 86.2127 40.9187 85.4797C42.0668 84.7467 45.3451 82.7664 48.2037 81.0791C54.8433 77.1598 64.3145 71.1619 69.86 67.3644C77.8007 61.9268 77.3796 62.4563 66.3435 71.786C55.0139 81.3639 47.387 86.9306 37.7752 92.6375C33.6289 95.0993 32.9135 95.2339 27.7025 94.5331Z" fill="#AEADF0"/>
<path d="M36.9425 95.4319C36.9425 95.3172 38.5667 94.2163 40.5519 92.9855C49.8958 87.192 72.331 69.9959 77.3675 64.7671C79.1794 62.8859 95.7339 49.0264 96.1689 49.0264C97.1169 49.0264 95.5527 50.4955 88.9175 55.8369C81.9931 61.4109 79.1057 63.9102 63.7587 77.6137C59.9678 80.9986 53.675 86.4393 49.7747 89.7042C42.881 95.4747 42.603 95.6404 39.8128 95.6404C38.2341 95.6404 36.9425 95.5467 36.9425 95.4319Z" fill="#AEADF0"/>
</svg>
